# xmcd
#
# Track frame offsets: 
#        150
#        25038
#        43703
#        56367
#        77285
#        112119
#        129952
#        154081
#        177852
#        195148
#        216163
#
# Disc length: 3233 seconds
#
# Revision: 3
# Processed by: cddbd v1.5.2PL0 Copyright (c) Steve Scherf et al.
# Submitted via: ExactAudioCopy v1.0b3
#
DISCID=7f0c9f0b
DTITLE=Henrik Freischlader - Still frame replay
DYEAR=2011
DGENRE=Blues
TTITLE0=Henrik Freischlader - Joe Bonamassa - Still frame replay
TTITLE1=Longer days
TTITLE2=Come on my love
TTITLE3=What's my name
TTITLE4=The memory of our love
TTITLE5=Gentlemen!
TTITLE6=If I could only be myself
TTITLE7=I've got it good
TTITLE8=Growing old
TTITLE9=Do, did, done
TTITLE10=Look at the fool
EXTD=
EXTT0=
EXTT1=
EXTT2=
EXTT3=
EXTT4=
EXTT5=
EXTT6=
EXTT7=
EXTT8=
EXTT9=
EXTT10=
PLAYORDER=
